<svg width="20" height="20" viewBox="0 0 20 20" fill="none" xmlns="http://www.w3.org/2000/svg">
<g clip-path="url(#clip0_317_29073)">
<path d="M13.849 0C13.8956 0 13.9421 0 13.9913 0C14.1055 1.41044 13.5671 2.46432 12.9128 3.22751C12.2708 3.98542 11.3917 4.7205 9.96985 4.60897C9.875 3.21872 10.4142 2.24301 11.0676 1.48158C11.6736 0.771967 12.7846 0.140517 13.849 0Z" fill="#FE12AC"/>
<path d="M13.849 0C13.8956 0 13.9421 0 13.9913 0C14.1055 1.41044 13.5671 2.46432 12.9128 3.22751C12.2708 3.98542 11.3917 4.7205 9.96985 4.60897C9.875 3.21872 10.4142 2.24301 11.0676 1.48158C11.6736 0.771967 12.7846 0.140517 13.849 0Z" fill="white"/>
<path d="M18.1529 14.6819C18.1529 14.696 18.1529 14.7083 18.1529 14.7215C17.7533 15.9317 17.1834 16.9689 16.4878 17.9314C15.8528 18.8053 15.0747 19.9812 13.6854 19.9812C12.4848 19.9812 11.6874 19.2092 10.457 19.1882C9.15543 19.1671 8.43967 19.8337 7.24967 20.0014C7.11354 20.0014 6.97742 20.0014 6.84392 20.0014C5.97008 19.8749 5.26486 19.1829 4.75109 18.5593C3.23614 16.7168 2.06546 14.3368 1.84766 11.2911C1.84766 10.9925 1.84766 10.6948 1.84766 10.3962C1.93987 8.2164 2.99902 6.44412 4.40683 5.58521C5.14981 5.12853 6.1712 4.73947 7.30851 4.91336C7.79593 4.98889 8.29389 5.15575 8.73037 5.32086C9.14402 5.47982 9.66129 5.76173 10.1513 5.7468C10.4833 5.73714 10.8135 5.56413 11.1481 5.44206C12.1283 5.08813 13.089 4.68239 14.3555 4.87296C15.8774 5.10306 16.9577 5.7793 17.6251 6.82264C16.3376 7.64203 15.3197 8.87683 15.4936 10.9855C15.6482 12.9009 16.7618 14.0215 18.1529 14.6819Z" fill="#FE12AC"/>
<path d="M18.1529 14.6819C18.1529 14.696 18.1529 14.7083 18.1529 14.7215C17.7533 15.9317 17.1834 16.9689 16.4878 17.9314C15.8528 18.8053 15.0747 19.9812 13.6854 19.9812C12.4848 19.9812 11.6874 19.2092 10.457 19.1882C9.15543 19.1671 8.43967 19.8337 7.24967 20.0014C7.11354 20.0014 6.97742 20.0014 6.84392 20.0014C5.97008 19.8749 5.26486 19.1829 4.75109 18.5593C3.23614 16.7168 2.06546 14.3368 1.84766 11.2911C1.84766 10.9925 1.84766 10.6948 1.84766 10.3962C1.93987 8.2164 2.99902 6.44412 4.40683 5.58521C5.14981 5.12853 6.1712 4.73947 7.30851 4.91336C7.79593 4.98889 8.29389 5.15575 8.73037 5.32086C9.14402 5.47982 9.66129 5.76173 10.1513 5.7468C10.4833 5.73714 10.8135 5.56413 11.1481 5.44206C12.1283 5.08813 13.089 4.68239 14.3555 4.87296C15.8774 5.10306 16.9577 5.7793 17.6251 6.82264C16.3376 7.64203 15.3197 8.87683 15.4936 10.9855C15.6482 12.9009 16.7618 14.0215 18.1529 14.6819Z" fill="white"/>
</g>
<defs>
<clipPath id="clip0_317_29073">
<rect width="20" height="20" fill="white"/>
</clipPath>
</defs>
</svg>
