<svg width="20" height="20" viewBox="0 0 20 20" fill="none" xmlns="http://www.w3.org/2000/svg">
<g clip-path="url(#clip0_317_29066)">
<path d="M15.1402 13.1979L12.7519 10.8496L3.98438 19.4954L15.1402 13.1979Z" fill="#FE12AC"/>
<path d="M15.1402 13.1979L12.7519 10.8496L3.98438 19.4954L15.1402 13.1979Z" fill="white"/>
<path d="M15.1402 6.80531L3.98438 0.507812L12.7519 9.15365L15.1402 6.80531Z" fill="#FE12AC"/>
<path d="M15.1402 6.80531L3.98438 0.507812L12.7519 9.15365L15.1402 6.80531Z" fill="white"/>
<path d="M18.6351 11.1891C19.3501 10.6308 19.3501 9.37242 18.5876 8.81409L16.2476 7.48242L13.6367 10.0024L16.2476 12.5224L18.6351 11.1891Z" fill="#FE12AC"/>
<path d="M18.6351 11.1891C19.3501 10.6308 19.3501 9.37242 18.5876 8.81409L16.2476 7.48242L13.6367 10.0024L16.2476 12.5224L18.6351 11.1891Z" fill="white"/>
<path d="M1.69565 20L11.8907 9.99833L1.69565 0.000833333V0C1.17982 0.265833 0.833984 0.75 0.833984 1.37917V18.6208C0.833984 19.25 1.17982 19.7342 1.69565 20Z" fill="#FE12AC"/>
<path d="M1.69565 20L11.8907 9.99833L1.69565 0.000833333V0C1.17982 0.265833 0.833984 0.75 0.833984 1.37917V18.6208C0.833984 19.25 1.17982 19.7342 1.69565 20Z" fill="white"/>
</g>
<defs>
<clipPath id="clip0_317_29066">
<rect width="20" height="20" fill="white"/>
</clipPath>
</defs>
</svg>
