<svg width="127" height="103" viewBox="0 0 127 103" fill="none" xmlns="http://www.w3.org/2000/svg">
<rect width="63.9994" height="63.9997" rx="31.9997" transform="matrix(0.967236 0.253879 -0.253876 0.967237 16.248 24.1094)" fill="#FFF857"/>
<path d="M27.4876 54.2544C26.3671 53.9603 25.2213 54.2419 24.3768 54.9134C23.9709 53.9137 23.1111 53.1057 21.9906 52.8116C20.0902 52.3128 18.1426 53.4558 17.6406 55.3686C17.4472 56.1052 17.3861 56.817 17.4247 57.502C17.5903 60.8539 20.1192 63.4961 21.4778 64.3952C21.6688 64.5248 22.0154 64.6158 22.2454 64.5967C23.8705 64.4807 27.3709 63.4211 29.1614 60.5827C29.5314 60.0049 29.8277 59.3548 30.0211 58.6182C30.5232 56.7054 29.388 54.7533 27.4876 54.2544Z" fill="#3C0027"/>
<path d="M34.3462 64.76L35.8168 59.1571L37.2333 59.5289L35.7627 65.1318L34.3462 64.76ZM32.8024 62.1174L33.1742 60.7008L38.7771 62.1715L38.4053 63.588L32.8024 62.1174ZM42.2549 68.2739C41.8388 68.1618 41.4549 67.9863 41.1031 67.7474C40.754 67.5091 40.4669 67.1955 40.242 66.8066C40.017 66.4176 39.8816 65.945 39.8359 65.3888C39.7928 64.8333 39.8685 64.185 40.063 63.4437C40.2443 62.7638 40.4817 62.1762 40.7753 61.6809C41.0722 61.1836 41.4135 60.7854 41.7994 60.4863C42.1879 60.1879 42.6095 59.994 43.0644 59.9048C43.5199 59.8129 43.9982 59.8327 44.4994 59.9642C45.0402 60.1062 45.49 60.337 45.8487 60.6567C46.2082 60.9738 46.4661 61.3447 46.6226 61.7692C46.7816 62.1944 46.8291 62.6369 46.7648 63.0965L45.0752 62.653C45.0834 62.3535 45.003 62.0955 44.8342 61.8792C44.6654 61.6629 44.4254 61.5139 44.1141 61.4322C43.5866 61.2937 43.1254 61.418 42.7305 61.805C42.3384 62.1927 42.0361 62.7802 41.8238 63.5675L41.8792 63.5821C42.0636 63.3739 42.2808 63.2124 42.5309 63.0975C42.7842 62.9808 43.0546 62.9122 43.3419 62.8917C43.6326 62.8693 43.9257 62.8969 44.2211 62.9744C44.7012 63.1005 45.0988 63.3261 45.4138 63.6512C45.7295 63.9738 45.944 64.36 46.0571 64.8098C46.1703 65.2596 46.1604 65.7378 46.0274 66.2442C45.8834 66.7929 45.6274 67.2473 45.2593 67.6075C44.8939 67.9684 44.4512 68.2103 43.9311 68.3332C43.4144 68.4541 42.8557 68.4344 42.2549 68.2739ZM42.6001 66.9265C42.8639 66.9957 43.1166 66.9944 43.3583 66.9224C43.5999 66.8505 43.8084 66.722 43.9839 66.5368C44.1594 66.3517 44.2825 66.1246 44.3531 65.8555C44.4237 65.5864 44.4277 65.3295 44.3651 65.0847C44.3051 64.8405 44.1888 64.6282 44.0163 64.4475C43.8438 64.2669 43.6256 64.142 43.3619 64.0727C43.164 64.0208 42.971 64.0096 42.7828 64.0392C42.5972 64.0694 42.4238 64.1338 42.2626 64.2325C42.104 64.3319 41.9662 64.4592 41.8493 64.6146C41.733 64.7674 41.6493 64.9414 41.5981 65.1366C41.5295 65.3978 41.5262 65.6521 41.5882 65.8995C41.6527 66.1477 41.7709 66.3634 41.9427 66.5467C42.1172 66.7306 42.3363 66.8572 42.6001 66.9265ZM49.6603 70.2895C48.9804 70.1082 48.4388 69.787 48.0354 69.3259C47.6346 68.8654 47.3851 68.2853 47.2868 67.5856C47.1911 66.8866 47.2609 66.0943 47.4962 65.2087C47.7281 64.325 48.0564 63.6061 48.4809 63.0521C48.9081 62.4988 49.4083 62.124 49.9815 61.9276C50.558 61.7293 51.1852 61.7191 51.8631 61.897C52.5411 62.075 53.0811 62.3916 53.4833 62.8467C53.8881 63.3026 54.1407 63.8765 54.2411 64.5683C54.3421 65.2574 54.2754 66.0435 54.0408 66.9265C53.8075 67.8154 53.4762 68.5405 53.0469 69.1018C52.6203 69.6637 52.1193 70.0468 51.5441 70.2511C50.9688 70.4553 50.3409 70.4682 49.6603 70.2895ZM50.0332 68.869C50.4974 68.9909 50.9293 68.8547 51.3289 68.4605C51.7284 68.0663 52.0494 67.4019 52.2919 66.4674C52.4532 65.8528 52.5242 65.3244 52.5049 64.8823C52.4882 64.4409 52.3922 64.0872 52.2167 63.8212C52.0438 63.5559 51.8031 63.3827 51.4944 63.3017C51.0328 63.1806 50.6029 63.3144 50.2048 63.7034C49.8066 64.0923 49.4854 64.7467 49.2411 65.6667C49.0777 66.2892 49.0033 66.8251 49.0179 67.2745C49.0358 67.7219 49.1322 68.0799 49.307 68.3485C49.4825 68.6145 49.7245 68.788 50.0332 68.869ZM57.3317 72.3031C56.6518 72.1218 56.1101 71.8006 55.7067 71.3394C55.3059 70.879 55.0564 70.2989 54.9581 69.5992C54.8624 68.9002 54.9322 68.1079 55.1675 67.2222C55.3995 66.3385 55.7277 65.6197 56.1523 65.0657C56.5794 64.5124 57.0796 64.1375 57.6528 63.9412C58.2293 63.7428 58.8565 63.7327 59.5345 63.9106C60.2124 64.0886 60.7525 64.4051 61.1546 64.8603C61.5594 65.3162 61.812 65.89 61.9124 66.5818C62.0135 67.271 61.9467 68.057 61.7121 68.94C61.4788 69.829 61.1475 70.5541 60.7182 71.1153C60.2916 71.6772 59.7906 72.0603 59.2154 72.2646C58.6401 72.4689 58.0122 72.4817 57.3317 72.3031ZM57.7045 70.8826C58.1688 71.0044 58.6007 70.8683 59.0002 70.4741C59.3997 70.0798 59.7207 69.4155 59.9632 68.481C60.1245 67.8664 60.1955 67.338 60.1762 66.8959C60.1596 66.4545 60.0635 66.1007 59.888 65.8348C59.7152 65.5695 59.4744 65.3963 59.1658 65.3153C58.7041 65.1941 58.2743 65.328 57.8761 65.7169C57.478 66.1059 57.1568 66.7603 56.9125 67.6802C56.7491 68.3028 56.6747 68.8387 56.6892 69.288C56.7072 69.7354 56.8035 70.0934 56.9783 70.3621C57.1538 70.6281 57.3959 70.8016 57.7045 70.8826Z" fill="#3C0027"/>
<rect x="70.8926" y="41.1992" width="51.1995" height="51.1998" rx="25.5997" transform="rotate(-4.9281 70.8926 41.1992)" fill="#14AAFF"/>
<path d="M92.4707 58.8862L86.0944 59.436C84.1815 59.601 83.0162 60.9862 83.1811 62.8991L83.511 66.7249C83.676 68.6378 85.0612 69.8031 86.9741 69.6381L89.5246 69.4182L92.5248 71.0609C92.9698 71.3052 93.5114 70.9566 93.4675 70.4465L93.3503 69.0883C95.2632 68.9234 96.4285 67.5382 96.2636 65.6253L95.9337 61.7995C95.7688 59.8866 94.3836 58.7213 92.4707 58.8862ZM91.9992 64.5926L87.5358 64.9775C87.2743 65 87.0388 64.8019 87.0163 64.5405C86.9938 64.279 87.1919 64.0436 87.4533 64.021L91.9167 63.6362C92.1781 63.6136 92.4136 63.8117 92.4361 64.0732C92.4587 64.3346 92.2606 64.5701 91.9992 64.5926Z" fill="#002539"/>
<path d="M101.418 66.7787L101.031 62.2899L102.166 62.1921L102.553 66.6808L101.418 66.7787ZM99.5963 65.2463L99.4984 64.1115L103.987 63.7244L104.085 64.8593L99.5963 65.2463ZM105.447 67.4277L105.362 66.4386L107.489 64.0996C107.669 63.8924 107.819 63.707 107.939 63.5434C108.061 63.3796 108.151 63.2217 108.208 63.0699C108.265 62.9159 108.286 62.7534 108.271 62.5822C108.255 62.392 108.197 62.2319 108.099 62.1021C108 61.97 107.873 61.8735 107.716 61.8125C107.56 61.7493 107.386 61.726 107.196 61.7424C106.997 61.7595 106.827 61.8146 106.686 61.9077C106.545 62.0007 106.441 62.1257 106.374 62.2827C106.306 62.4397 106.282 62.6217 106.3 62.8288L104.997 62.9412C104.96 62.5164 105.024 62.1393 105.19 61.81C105.355 61.4806 105.604 61.2154 105.936 61.0143C106.267 60.8133 106.659 60.6932 107.112 60.6542C107.577 60.6141 107.988 60.6617 108.347 60.7968C108.708 60.9297 108.997 61.1326 109.214 61.4055C109.431 61.6784 109.556 62.002 109.588 62.376C109.609 62.6212 109.582 62.8673 109.505 63.1145C109.431 63.3615 109.283 63.6414 109.063 63.9542C108.843 64.2649 108.528 64.6423 108.117 65.0865L107.249 66.0971L107.253 66.1415L109.979 65.9064L110.076 67.0286L105.447 67.4277ZM112.186 65.4351L112.049 63.8149L112.246 63.798L113.646 61.8154L115.196 61.6817L113.312 64.3096L112.992 64.3372L112.186 65.4351ZM111.083 66.9417L110.523 60.4495L111.874 60.3331L112.433 66.8253L111.083 66.9417ZM114.126 66.6793L112.51 64.6821L113.328 63.6503L115.708 66.5429L114.126 66.6793Z" fill="#002539"/>
<rect width="38.3996" height="38.3998" rx="19.1998" transform="matrix(0.975034 -0.222056 0.222054 0.975034 52.0527 9.41016)" fill="#FF9E09"/>
<path d="M68.6059 21.1633L64.684 22.0565C62.9804 22.4445 62.1961 23.6914 62.5841 25.3949L63.4762 29.3122C63.8653 31.0205 65.1121 31.8048 66.8157 31.4168L70.733 30.5247C72.4365 30.1367 73.2208 28.8898 72.8329 27.1862L71.9397 23.2643C71.5564 21.5596 70.3095 20.7753 68.6059 21.1633ZM70.2031 25.8849C70.2468 26.0768 70.1239 26.2722 69.932 26.3159C69.7401 26.3596 69.5447 26.2367 69.501 26.0448L69.1792 24.6314L66.3889 29.0673C66.3347 29.1535 66.2533 29.2065 66.1643 29.2268C66.0754 29.247 65.979 29.2345 65.8928 29.1803C65.7262 29.0755 65.675 28.8508 65.7799 28.6842L68.5701 24.2483L67.1567 24.5702C66.9648 24.6139 66.7694 24.491 66.7257 24.2991C66.682 24.1072 66.8049 23.9119 66.9968 23.8682L69.2573 23.3533C69.4492 23.3096 69.6446 23.4325 69.6883 23.6244L70.2031 25.8849Z" fill="#341F00"/>
<path d="M76.8856 25.8764L76.0128 22.0442L76.9817 21.8236L77.8544 25.6557L76.8856 25.8764ZM75.1279 24.7708L74.9072 23.8019L78.7394 22.9292L78.96 23.898L75.1279 24.7708ZM82.6302 25.5359C82.2261 25.628 81.8503 25.6405 81.5029 25.5735C81.1569 25.5042 80.8649 25.3677 80.6268 25.1638C80.3901 24.9577 80.2322 24.6938 80.1533 24.3721L81.3332 24.1034C81.3713 24.237 81.4426 24.3461 81.5472 24.4304C81.6532 24.5125 81.7811 24.566 81.931 24.5907C82.0808 24.6154 82.2415 24.6082 82.4129 24.5692C82.5915 24.5285 82.7422 24.461 82.8649 24.3666C82.9876 24.2722 83.0751 24.1603 83.1272 24.0307C83.1793 23.9012 83.1887 23.7634 83.1554 23.6172C83.1217 23.4693 83.0504 23.3479 82.9416 23.2532C82.8341 23.1562 82.6962 23.0927 82.5281 23.0626C82.3618 23.0322 82.1739 23.0408 81.9646 23.0885L81.4477 23.2062L81.2517 22.3456L81.7687 22.2279C81.9455 22.1876 82.0945 22.1214 82.2159 22.0292C82.339 21.9367 82.4262 21.8276 82.4773 21.7021C82.528 21.5748 82.5367 21.4381 82.5034 21.2919C82.4718 21.153 82.4107 21.0388 82.3201 20.9494C82.2309 20.8577 82.12 20.7957 81.9874 20.7633C81.8565 20.7304 81.7126 20.7319 81.5557 20.7676C81.3969 20.8038 81.2582 20.8658 81.1397 20.9535C81.0207 21.0394 80.9334 21.1437 80.8779 21.2665C80.8223 21.3892 80.8079 21.5215 80.8345 21.6635L79.7114 21.9193C79.6441 21.5987 79.6711 21.2965 79.7924 21.0126C79.9138 20.7288 80.1086 20.4842 80.3768 20.2789C80.6465 20.0714 80.9708 19.9244 81.3497 19.8382C81.7322 19.751 82.0827 19.7443 82.4012 19.8179C82.7197 19.8915 82.9852 20.0284 83.1978 20.2286C83.4118 20.4265 83.5512 20.6719 83.616 20.9646C83.6884 21.2745 83.6509 21.5554 83.5033 21.8072C83.3575 22.0587 83.1358 22.2477 82.8382 22.3743L82.848 22.4176C83.2677 22.3771 83.6103 22.448 83.8758 22.6305C84.1427 22.8107 84.3144 23.0733 84.3911 23.4183C84.4648 23.7337 84.4376 24.035 84.3095 24.3223C84.1831 24.6091 83.9754 24.8595 83.6863 25.0734C83.3972 25.2872 83.0452 25.4414 82.6302 25.5359ZM86.3709 23.3461L86.0587 21.9625L86.2264 21.9243L87.1986 20.0433L88.522 19.7419L87.209 22.2386L86.9356 22.3008L86.3709 23.3461ZM85.5987 24.7802L84.3364 19.2376L85.4893 18.9751L86.7516 24.5176L85.5987 24.7802ZM88.1967 24.1885L86.5612 22.6566L87.1442 21.6669L89.5472 23.8809L88.1967 24.1885Z" fill="#341F00"/>
</svg>
