<svg width="24" height="24" viewBox="0 0 24 24" fill="none" xmlns="http://www.w3.org/2000/svg">
<g clip-path="url(#clip0_156_13365)">
<path d="M23.59 4.29216C23.4852 3.29813 23.0423 2.3702 22.3354 1.66354C21.6285 0.956879 20.7004 0.514329 19.7063 0.409887C14.5847 -0.139233 9.41894 -0.139233 4.29725 0.409887C3.3022 0.513153 2.37285 0.955185 1.66484 1.66195C0.956833 2.36872 0.513171 3.29729 0.408159 4.29216C-0.138657 9.41625 -0.138657 14.584 0.408159 19.7081C0.512656 20.7023 0.955403 21.6306 1.66234 22.3375C2.36927 23.0445 3.29752 23.4872 4.2918 23.5917C9.41348 24.1408 14.5792 24.1408 19.7009 23.5917C20.6961 23.4884 21.6257 23.0462 22.3337 22.3391C23.0417 21.6321 23.4853 20.7032 23.59 19.7081C24.1368 14.584 24.1368 9.41625 23.59 4.29216ZM18.5963 10.4558H17.4263C16.5612 10.457 15.7123 10.2212 14.9718 9.77398V14.7144C14.9721 15.6611 14.6916 16.5867 14.1658 17.374C13.64 18.1613 12.8926 18.775 12.018 19.1374C11.1435 19.4999 10.181 19.5949 9.25249 19.4104C8.32394 19.2258 7.47097 18.7701 6.80144 18.1007C6.13192 17.4314 5.67593 16.5786 5.49114 15.6501C5.30634 14.7216 5.40105 13.7591 5.76328 12.8844C6.12551 12.0098 6.73899 11.2622 7.52613 10.7362C8.31327 10.2102 9.23872 9.92943 10.1854 9.92943H11.3582V12.2626H10.1895C9.70406 12.2626 9.2295 12.4066 8.82585 12.6763C8.4222 12.946 8.1076 13.3293 7.92182 13.7778C7.73604 14.2264 7.68743 14.7199 7.78214 15.196C7.87685 15.6722 8.11062 16.1095 8.4539 16.4528C8.79717 16.7961 9.23453 17.0298 9.71067 17.1245C10.1868 17.2193 10.6803 17.1706 11.1288 16.9849C11.5773 16.7991 11.9607 16.4845 12.2304 16.0808C12.5001 15.6772 12.6441 15.2026 12.6441 14.7172V4.5008H14.98V5.6708C14.98 6.32178 15.2386 6.94611 15.6989 7.40642C16.1592 7.86674 16.7835 8.12534 17.4345 8.12534H18.6032L18.5963 10.4558Z" fill="#FE12AC"/>
</g>
<defs>
<clipPath id="clip0_156_13365">
<rect width="24" height="24" fill="white"/>
</clipPath>
</defs>
</svg>
