<svg width="1360" height="252" viewBox="0 0 1360 252" fill="none" xmlns="http://www.w3.org/2000/svg">
<path d="M331.65 0C263.142 0 211.479 53.8973 211.479 125.37C211.479 195.848 264.253 251.059 331.65 251.059C400.328 251.059 452.111 197.02 452.111 125.37C452.128 55.069 399.2 0 331.65 0ZM331.65 181.326C302.714 181.326 281.731 157.786 281.731 125.37C281.731 92.9533 302.731 69.4132 331.65 69.4132C360.294 69.4132 381.876 93.4682 381.876 125.37C381.876 157.804 360.756 181.326 331.65 181.326Z" fill="white"/>
<path d="M1336.71 208.136C1335.53 206.272 1334.51 204.567 1333.58 202.845C1319.42 176.767 1305.33 150.635 1291.26 124.503L1248.79 46.2663C1230.98 13.7433 1204.84 -3.8497 1167.53 0.71275C1139.33 4.17453 1114.91 24.9275 1114.16 52.4087V251.062H1186.84V79.5349L1191.68 88.0562C1197 97.9267 1202.64 107.655 1208.3 117.33L1229.9 155.375L1277.9 240.02L1284.19 251.08H1359.97L1346.94 227.096L1336.71 208.136Z" fill="white"/>
<path d="M0 0.0913493V71.8657H69.1407H179.171V0.180113V0.0913493H157.777C120.616 0.0203383 48.5507 0.0025856 0 0.0913493Z" fill="white"/>
<path d="M75.5879 98.5464C71.0731 98.5464 67.0714 98.5819 63.8563 98.6352C24.6088 99.221 0.342026 124.306 0.0342026 164.835C0.0342026 166.628 0 168.386 0 170.196V251.06H75.5879V170.196H179.171V98.4932C158.273 98.3689 105.105 98.2801 75.5879 98.5464Z" fill="white"/>
<path d="M1080.92 71.3512C1080.69 24.6615 1056.7 0.0206896 1012.29 0.464508C976.65 0.784057 957.189 15.3235 946.501 50.545C936.428 83.6538 926.92 116.94 915.445 156.121C903.44 115.005 894.068 80.2986 883.123 46.16C871.392 9.42964 842.935 -5.4294 801.413 1.72495C769.297 7.28156 751.016 30.1826 750.708 66.9663C750.656 70.5523 750.656 74.4934 750.622 78.6476H750.451V251.062H750.537H819.951V78.6476C822.875 86.0682 825.184 91.2875 827.014 96.6666C840.182 135.652 852.922 174.832 866.449 213.693C874.949 238.191 892.153 251.062 914.094 251.062C919.19 251.062 924.611 250.388 930.237 248.932C949.254 244.085 959.07 230.504 965.09 212.343C979.575 168.725 994.453 125.213 1010.82 76.6948V86.7961V251.062H1080.93H1081.02V119.639V86.7961H1080.97C1080.97 81.6478 1080.92 76.5172 1080.92 71.3512Z" fill="white"/>
<path d="M717.637 72.4902C717.654 72.454 717.654 72.3997 717.654 72.3453L717.637 72.291V72.4902Z" fill="white"/>
<path d="M1350.59 0L1342.04 24.6763L1333.57 0H1324.08V34.4758H1330.17V6.65728L1339.42 34.4758H1344.74L1353.92 6.65728V34.4758H1360.01V0H1350.59Z" fill="white"/>
<path d="M1301 34.4758H1307.6V5.76964H1318.45V0H1290.16V5.76964H1301V34.4758Z" fill="white"/>
<path d="M712.418 42.4788C701.935 14.1986 680.559 0.795329 651.777 0.440275C617.13 -0.0212966 582.448 -0.198824 547.801 0.298253C508.536 0.884093 484.287 25.9687 483.979 66.4805C483.979 68.2912 483.928 70.0665 483.928 71.8595V251.056H559.533V71.8595H647.416C637.463 80.9844 627.596 89.9673 618.755 99.181C614.753 103.335 610.973 107.543 607.485 111.839C596.643 126.147 582.585 151.569 587.664 182.885C587.716 183.24 587.784 183.577 587.835 183.933C588.793 189.152 594.197 212.887 616.087 230.445C626.963 238.948 642.508 247.115 663.594 249.618C668.417 250.204 673.787 250.665 679.738 250.878C681.585 250.878 683.278 250.914 684.817 251.02C687.006 251.056 689.332 251.073 691.811 251.073C691.982 251.073 692.136 251.073 692.307 251.073H716.831V180.045H681.089C678.985 180.045 677.087 179.974 675.36 179.849C674.984 179.814 674.59 179.778 674.18 179.761C673.068 179.672 672.042 179.548 671.102 179.423C649.913 176.139 657.814 157.445 658.891 155.084C659.387 154.037 659.952 153.025 660.55 152.031C661.405 150.664 664.637 145.675 669.853 139.853C672.196 137.456 674.556 135.095 676.95 132.751C677.327 132.396 677.669 132.077 677.959 131.757C683.911 125.917 689.947 120.129 695.813 114.164C708.092 101.666 715.411 87.7305 716.831 72.4454C716.831 72.4099 716.831 72.3744 716.831 72.3211C717.703 62.8944 716.3 52.9174 712.418 42.4788Z" fill="white"/>
</svg>
