<svg width="24" height="24" viewBox="0 0 24 24" fill="none" xmlns="http://www.w3.org/2000/svg">
<path d="M11.9993 7.59766C9.57046 7.59766 7.59766 9.57046 7.59766 11.9993C7.59766 14.4281 9.57046 16.4057 11.9993 16.4057C14.4281 16.4057 16.4057 14.4281 16.4057 11.9993C16.4057 9.57046 14.4281 7.59766 11.9993 7.59766Z" fill="#FE12AC"/>
<path d="M18.6432 0H5.3568C2.4048 0 0 2.4048 0 5.3568V18.6432C0 21.6 2.4048 24 5.3568 24H18.6432C21.6 24 24 21.6 24 18.6432V5.3568C24 2.4048 21.6 0 18.6432 0ZM12 19.776C7.7136 19.776 4.224 16.2864 4.224 12C4.224 7.7136 7.7136 4.2288 12 4.2288C16.2864 4.2288 19.776 7.7136 19.776 12C19.776 16.2864 16.2864 19.776 12 19.776ZM19.9392 5.64C19.032 5.64 18.2928 4.9056 18.2928 3.9984C18.2928 3.0912 19.032 2.352 19.9392 2.352C20.8464 2.352 21.5856 3.0912 21.5856 3.9984C21.5856 4.9056 20.8464 5.64 19.9392 5.64Z" fill="#FE12AC"/>
</svg>
