<svg width="21" height="22" viewBox="0 0 21 22" fill="none" xmlns="http://www.w3.org/2000/svg">
<path d="M16.2481 7.0399L15.8869 7.40111L16.2057 7.80026C17.188 9.03019 17.7777 10.5854 17.7777 12.2762C17.7777 16.2423 14.5702 19.4576 10.5963 19.4576C6.62245 19.4576 3.41494 16.2423 3.41494 12.2762C3.41494 8.31055 6.63065 5.09484 10.5963 5.09484C12.2868 5.09484 13.8419 5.68427 15.0806 6.67525L15.4798 6.99462L15.8413 6.63311L16.6853 5.78908C16.8241 5.91969 16.9593 6.05597 17.091 6.19696L16.2481 7.0399ZM8.58334 3.09106V2.51065H12.6093V3.09106H8.58334ZM10.8865 8.54044V12.5664H10.3061V8.54044H10.8865ZM3.99535 12.2762C3.99535 15.9253 6.94727 18.8772 10.5963 18.8772C14.2454 18.8772 17.1973 15.9253 17.1973 12.2762C17.1973 8.62717 14.2454 5.67526 10.5963 5.67526C6.94727 5.67526 3.99535 8.62717 3.99535 12.2762Z" fill="black" stroke="#FFE600" stroke-width="1.14239"/>
</svg>
